<svg xmlns="http://www.w3.org/2000/svg" version="1.1" xmlns:xlink="http://www.w3.org/1999/xlink" xmlns:svgjs="http://svgjs.com/svgjs" width="512" height="512" x="0" y="0" viewBox="0 0 384 384" style="enable-background:new 0 0 512 512" xml:space="preserve" class=""><g transform="matrix(1,0,0,1,0,0)">
<g xmlns="http://www.w3.org/2000/svg">
	<g>
		<g>
			<path d="M378.859,7.445C374.805,2.709,368.896,0,362.667,0H21.333C15.104,0,9.195,2.709,5.141,7.445     C1.088,12.16-0.704,18.453,0.256,24.576l42.667,277.333c1.045,6.848,5.355,12.736,11.541,15.808l128,64     c2.987,1.536,6.272,2.283,9.536,2.283s6.549-0.747,9.536-2.261l128-64c6.187-3.072,10.496-8.96,11.541-15.808l42.667-277.333     C384.704,18.453,382.912,12.16,378.859,7.445z M300.587,284.523L192,338.816L83.413,284.523L46.208,42.667h291.605     L300.587,284.523z" fill="#006cb1" data-original="#000000" style="" class=""></path>
			<path d="M90.005,106.667h96.96l-86.187,43.093l10.56,42.24h117.333l-10.667,42.667h-52.011l-5.333-21.333h-43.989l11.968,47.851     c2.368,9.493,10.901,16.149,20.693,16.149h85.333c9.792,0,18.325-6.677,20.693-16.149l21.333-85.333     c1.6-6.379,0.149-13.12-3.883-18.304c-4.032-5.141-10.24-8.213-16.811-8.213h-58.965l89.835-44.928     c8.853-4.437,13.483-14.336,11.221-23.979C295.829,70.805,287.232,64,277.333,64H79.339L90.005,106.667z" fill="#006cb1" data-original="#000000" style="" class=""></path>
		</g>
	</g>
</g>
<g xmlns="http://www.w3.org/2000/svg">
</g>
<g xmlns="http://www.w3.org/2000/svg">
</g>
<g xmlns="http://www.w3.org/2000/svg">
</g>
<g xmlns="http://www.w3.org/2000/svg">
</g>
<g xmlns="http://www.w3.org/2000/svg">
</g>
<g xmlns="http://www.w3.org/2000/svg">
</g>
<g xmlns="http://www.w3.org/2000/svg">
</g>
<g xmlns="http://www.w3.org/2000/svg">
</g>
<g xmlns="http://www.w3.org/2000/svg">
</g>
<g xmlns="http://www.w3.org/2000/svg">
</g>
<g xmlns="http://www.w3.org/2000/svg">
</g>
<g xmlns="http://www.w3.org/2000/svg">
</g>
<g xmlns="http://www.w3.org/2000/svg">
</g>
<g xmlns="http://www.w3.org/2000/svg">
</g>
<g xmlns="http://www.w3.org/2000/svg">
</g>
</g></svg>
