<?xml version="1.0" encoding="UTF-8"?>
<svg xmlns="http://www.w3.org/2000/svg" xmlns:xlink="http://www.w3.org/1999/xlink" viewBox="0 0 500 500" width="500px" height="500px">
<g id="surface12371583">
<path style="fill-rule:evenodd;fill:rgb(0%,42.352942%,69.411767%);fill-opacity:1;stroke-width:4;stroke-linecap:butt;stroke-linejoin:round;stroke:rgb(20%,20%,20%);stroke-opacity:1;stroke-miterlimit:10;" d="M 189.839716 27.120216 L 176.280506 180.799644 L 113.000002 198.879788 L 49.719498 180.799644 L 36.160288 27.120216 Z M 77.299531 151.419859 L 113.000002 163.179317 L 148.700473 151.419859 L 151.879676 99.440792 L 154.139245 63.280504 L 71.418904 63.280504 L 72.778597 81.360648 L 135.141263 81.360648 L 133.799532 99.440792 L 92.200472 99.440792 L 93.11831 117.51914 L 132.881695 117.51914 L 131.539963 137.860649 L 113.000002 144.181336 L 94.461837 137.860649 L 94.019982 126.559212 L 75.939838 126.559212 Z M 77.299531 151.419859 " transform="matrix(2.174779,0,0,2.174779,4.25,4.25)"/>
<path style=" stroke:none;fill-rule:evenodd;fill:rgb(0%,42.352942%,69.411767%);fill-opacity:1;" d="M 417.109375 63.230469 L 387.621094 397.449219 L 250 436.769531 L 112.378906 397.449219 L 82.890625 63.230469 Z M 169.402344 279.488281 L 208.722656 279.488281 L 209.683594 304.066406 L 250 317.8125 L 290.316406 304.066406 L 293.238281 259.828125 L 206.761719 259.828125 L 204.765625 220.511719 L 295.234375 220.511719 L 298.152344 181.191406 L 162.527344 181.191406 L 159.570312 141.871094 L 339.46875 141.871094 L 334.554688 220.511719 L 327.640625 333.554688 L 250 359.128906 L 172.359375 333.554688 Z M 169.402344 279.488281 "/>
</g>
</svg>
