<?xml version="1.0" encoding="UTF-8"?>
<svg xmlns="http://www.w3.org/2000/svg" xmlns:xlink="http://www.w3.org/1999/xlink" viewBox="0 0 64 64" width="64px" height="64px">
<g id="surface12382854">
<path style=" stroke:none;fill-rule:nonzero;fill:rgb(92.54902%,94.117647%,94.509804%);fill-opacity:1;" d="M 32 64 C 14.328125 64 0 49.671875 0 32 C 0 14.328125 14.328125 0 32 0 C 49.671875 0 64 14.328125 64 32 C 64 49.671875 49.671875 64 32 64 Z M 32 64 "/>
<path style=" stroke:none;fill-rule:nonzero;fill:rgb(0%,42.352942%,69.411767%);fill-opacity:1;" d="M 10.417969 12.394531 L 14.789062 48.59375 C 14.945312 49.875 15.859375 50.941406 17.109375 51.296875 L 31.136719 55.277344 C 31.703125 55.4375 32.304688 55.441406 32.875 55.289062 L 47.628906 51.289062 C 48.917969 50.941406 49.859375 49.835938 49.992188 48.511719 L 53.632812 12.363281 C 53.726562 11.417969 52.980469 10.601562 52.023438 10.601562 L 12.019531 10.601562 C 11.050781 10.601562 10.300781 11.441406 10.417969 12.394531 Z M 10.417969 12.394531 "/>
<path style=" stroke:none;fill-rule:nonzero;fill:rgb(20.392157%,59.607846%,85.882354%);fill-opacity:1;" d="M 52.023438 10.601562 L 32.003906 10.601562 L 32.003906 55.398438 C 32.296875 55.402344 32.589844 55.363281 32.875 55.289062 L 47.628906 51.289062 C 48.917969 50.941406 49.859375 49.835938 49.992188 48.511719 L 53.632812 12.363281 C 53.726562 11.417969 52.980469 10.601562 52.023438 10.601562 Z M 52.023438 10.601562 "/>
<path style=" stroke:none;fill-rule:nonzero;fill:rgb(20%,20%,20%);fill-opacity:1;" d="M 32.023438 56.199219 C 31.652344 56.199219 31.28125 56.148438 30.917969 56.046875 L 16.890625 52.066406 C 15.324219 51.621094 14.1875 50.296875 13.992188 48.6875 L 9.621094 12.492188 C 9.539062 11.8125 9.753906 11.128906 10.207031 10.613281 C 10.667969 10.097656 11.328125 9.800781 12.019531 9.800781 L 52.023438 9.800781 C 52.707031 9.800781 53.363281 10.089844 53.820312 10.597656 C 54.273438 11.097656 54.496094 11.773438 54.429688 12.445312 L 50.789062 48.59375 C 50.621094 50.234375 49.4375 51.628906 47.835938 52.0625 L 33.085938 56.058594 C 32.738281 56.152344 32.382812 56.199219 32.023438 56.199219 Z M 12.019531 11.398438 C 11.78125 11.398438 11.5625 11.496094 11.40625 11.675781 C 11.253906 11.847656 11.183594 12.070312 11.210938 12.300781 L 15.582031 48.496094 C 15.699219 49.460938 16.386719 50.257812 17.328125 50.527344 L 31.355469 54.507812 C 31.785156 54.628906 32.238281 54.632812 32.667969 54.515625 L 47.417969 50.519531 C 48.382812 50.257812 49.097656 49.421875 49.195312 48.433594 L 52.835938 12.285156 C 52.859375 12.058594 52.785156 11.839844 52.632812 11.667969 C 52.476562 11.496094 52.257812 11.398438 52.023438 11.398438 Z M 12.019531 11.398438 "/>
<path style=" stroke:none;fill-rule:nonzero;fill:rgb(20%,20%,20%);fill-opacity:1;" d="M 12.003906 16.199219 C 11.5625 16.199219 11.203125 15.84375 11.203125 15.398438 L 11.203125 13.800781 C 11.203125 13.359375 11.5625 13 12.003906 13 C 12.445312 13 12.804688 13.359375 12.804688 13.800781 L 12.804688 15.398438 C 12.804688 15.84375 12.445312 16.199219 12.003906 16.199219 Z M 16.003906 16.199219 C 15.5625 16.199219 15.203125 15.84375 15.203125 15.398438 L 15.203125 13.800781 C 15.203125 13.359375 15.5625 13 16.003906 13 C 16.445312 13 16.804688 13.359375 16.804688 13.800781 L 16.804688 15.398438 C 16.804688 15.84375 16.445312 16.199219 16.003906 16.199219 Z M 20.003906 16.199219 C 19.5625 16.199219 19.203125 15.84375 19.203125 15.398438 L 19.203125 13.800781 C 19.203125 13.359375 19.5625 13 20.003906 13 C 20.445312 13 20.804688 13.359375 20.804688 13.800781 L 20.804688 15.398438 C 20.804688 15.84375 20.445312 16.199219 20.003906 16.199219 Z M 24.003906 16.199219 C 23.5625 16.199219 23.203125 15.84375 23.203125 15.398438 L 23.203125 13.800781 C 23.203125 13.359375 23.5625 13 24.003906 13 C 24.445312 13 24.804688 13.359375 24.804688 13.800781 L 24.804688 15.398438 C 24.804688 15.84375 24.445312 16.199219 24.003906 16.199219 Z M 28.003906 16.199219 C 27.5625 16.199219 27.203125 15.84375 27.203125 15.398438 L 27.203125 13.800781 C 27.203125 13.359375 27.5625 13 28.003906 13 C 28.445312 13 28.804688 13.359375 28.804688 13.800781 L 28.804688 15.398438 C 28.804688 15.84375 28.445312 16.199219 28.003906 16.199219 Z M 32.003906 16.199219 C 31.5625 16.199219 31.203125 15.84375 31.203125 15.398438 L 31.203125 13.800781 C 31.203125 13.359375 31.5625 13 32.003906 13 C 32.445312 13 32.804688 13.359375 32.804688 13.800781 L 32.804688 15.398438 C 32.804688 15.84375 32.445312 16.199219 32.003906 16.199219 Z M 36.003906 16.199219 C 35.5625 16.199219 35.203125 15.84375 35.203125 15.398438 L 35.203125 13.800781 C 35.203125 13.359375 35.5625 13 36.003906 13 C 36.445312 13 36.804688 13.359375 36.804688 13.800781 L 36.804688 15.398438 C 36.804688 15.84375 36.445312 16.199219 36.003906 16.199219 Z M 40.003906 16.199219 C 39.5625 16.199219 39.203125 15.84375 39.203125 15.398438 L 39.203125 13.800781 C 39.203125 13.359375 39.5625 13 40.003906 13 C 40.445312 13 40.804688 13.359375 40.804688 13.800781 L 40.804688 15.398438 C 40.804688 15.84375 40.445312 16.199219 40.003906 16.199219 Z M 44.003906 16.199219 C 43.5625 16.199219 43.203125 15.84375 43.203125 15.398438 L 43.203125 13.800781 C 43.203125 13.359375 43.5625 13 44.003906 13 C 44.445312 13 44.804688 13.359375 44.804688 13.800781 L 44.804688 15.398438 C 44.804688 15.84375 44.445312 16.199219 44.003906 16.199219 Z M 48.003906 16.199219 C 47.5625 16.199219 47.203125 15.84375 47.203125 15.398438 L 47.203125 13.800781 C 47.203125 13.359375 47.5625 13 48.003906 13 C 48.445312 13 48.804688 13.359375 48.804688 13.800781 L 48.804688 15.398438 C 48.804688 15.84375 48.445312 16.199219 48.003906 16.199219 Z M 52.003906 16.199219 C 51.5625 16.199219 51.203125 15.84375 51.203125 15.398438 L 51.203125 13.800781 C 51.203125 13.359375 51.5625 13 52.003906 13 C 52.445312 13 52.804688 13.359375 52.804688 13.800781 L 52.804688 15.398438 C 52.804688 15.84375 52.445312 16.199219 52.003906 16.199219 Z M 38.402344 50.445312 C 38.050781 50.445312 37.726562 50.210938 37.632812 49.855469 C 37.515625 49.429688 37.769531 48.988281 38.195312 48.871094 L 39.792969 48.4375 C 40.222656 48.324219 40.660156 48.574219 40.777344 49 C 40.890625 49.429688 40.640625 49.867188 40.214844 49.984375 L 38.613281 50.417969 C 38.542969 50.4375 38.472656 50.445312 38.402344 50.445312 Z M 32.023438 52.203125 L 27.785156 51 C 27.359375 50.878906 27.113281 50.4375 27.234375 50.011719 C 27.355469 49.585938 27.796875 49.335938 28.222656 49.460938 L 32.035156 50.542969 L 34.996094 49.742188 C 35.421875 49.621094 35.859375 49.875 35.976562 50.304688 C 36.09375 50.730469 35.839844 51.167969 35.414062 51.285156 Z M 32.023438 52.203125 "/>
<path style=" stroke:none;fill-rule:nonzero;fill:rgb(100%,97.254902%,97.254902%);fill-opacity:1;" d="M 18.804688 30.601562 L 19.792969 32.410156 L 21.605469 33.398438 L 19.792969 34.390625 L 18.804688 36.199219 L 17.8125 34.390625 L 16.003906 33.398438 L 17.8125 32.410156 Z M 44.40625 44.199219 L 45.105469 45.488281 L 46.40625 46.203125 L 45.105469 46.902344 L 44.40625 48.199219 L 43.691406 46.902344 L 42.40625 46.203125 L 43.691406 45.488281 Z M 48.40625 25 L 48.832031 25.769531 L 49.605469 26.199219 L 48.832031 26.621094 L 48.40625 27.398438 L 47.976562 26.621094 L 47.203125 26.199219 L 47.976562 25.769531 Z M 48.40625 25 "/>
<path style=" stroke:none;fill-rule:nonzero;fill:rgb(98.039216%,93.725491%,87.058824%);fill-opacity:1;" d="M 44.019531 20.199219 L 20.003906 20.199219 C 19.511719 20.199219 19.136719 20.636719 19.214844 21.125 L 19.824219 25 L 39.503906 25 L 38.9375 29.800781 L 26.40625 29.800781 L 26.40625 34.601562 L 38.371094 34.601562 L 37.648438 40.699219 L 32.078125 42.398438 L 27.160156 40.730469 L 26.808594 38.476562 C 26.746094 38.085938 26.410156 37.800781 26.015625 37.800781 L 22.777344 37.800781 C 22.285156 37.800781 21.910156 38.238281 21.988281 38.726562 L 22.796875 43.875 C 22.84375 44.164062 23.046875 44.40625 23.324219 44.5 L 31.765625 47.359375 C 31.847656 47.386719 31.929688 47.398438 32.015625 47.398438 C 32.089844 47.398438 32.167969 47.390625 32.242188 47.367188 L 41.554688 44.527344 C 41.855469 44.4375 42.070312 44.175781 42.109375 43.867188 L 44.421875 24.292969 L 44.800781 21.078125 C 44.855469 20.609375 44.488281 20.199219 44.019531 20.199219 Z M 44.019531 20.199219 "/>
<path style=" stroke:none;fill-rule:nonzero;fill:rgb(20%,20%,20%);fill-opacity:1;" d="M 32.015625 48.199219 C 31.847656 48.199219 31.679688 48.171875 31.515625 48.117188 L 23.070312 45.257812 C 22.507812 45.070312 22.101562 44.585938 22.007812 44 L 21.195312 38.847656 C 21.125 38.386719 21.257812 37.917969 21.558594 37.5625 C 21.867188 37.203125 22.308594 37 22.777344 37 L 26.015625 37 C 26.808594 37 27.476562 37.570312 27.597656 38.351562 L 27.878906 40.128906 L 32.09375 41.558594 L 36.917969 40.089844 L 37.46875 35.398438 L 26.40625 35.398438 C 25.960938 35.398438 25.605469 35.042969 25.605469 34.601562 L 25.605469 29.800781 C 25.605469 29.359375 25.960938 29 26.40625 29 L 38.226562 29 L 38.605469 25.800781 L 19.824219 25.800781 C 19.429688 25.800781 19.09375 25.511719 19.035156 25.125 L 18.421875 21.246094 C 18.351562 20.785156 18.484375 20.316406 18.789062 19.960938 C 19.09375 19.605469 19.535156 19.398438 20.003906 19.398438 L 44.019531 19.398438 C 44.472656 19.398438 44.90625 19.59375 45.207031 19.933594 C 45.507812 20.269531 45.648438 20.722656 45.59375 21.171875 L 42.902344 43.960938 C 42.828125 44.585938 42.390625 45.109375 41.789062 45.292969 L 32.472656 48.132812 C 32.324219 48.175781 32.171875 48.199219 32.015625 48.199219 Z M 22.777344 38.601562 L 23.589844 43.75 L 32.023438 46.601562 L 41.320312 43.761719 L 44.003906 21 L 20.003906 21 L 20.507812 24.199219 L 39.503906 24.199219 C 39.734375 24.199219 39.949219 24.296875 40.101562 24.46875 C 40.253906 24.640625 40.324219 24.867188 40.296875 25.09375 L 39.730469 29.894531 C 39.683594 30.296875 39.34375 30.601562 38.9375 30.601562 L 27.203125 30.601562 L 27.203125 33.800781 L 38.371094 33.800781 C 38.597656 33.800781 38.816406 33.898438 38.96875 34.070312 C 39.117188 34.238281 39.191406 34.46875 39.164062 34.695312 L 38.445312 40.792969 C 38.40625 41.109375 38.1875 41.371094 37.882812 41.464844 L 32.3125 43.164062 C 32.152344 43.210938 31.980469 43.210938 31.824219 43.15625 L 26.90625 41.488281 C 26.625 41.394531 26.417969 41.152344 26.371094 40.855469 L 26.015625 38.601562 Z M 22.777344 38.601562 "/>
</g>
</svg>
