<?xml version="1.0" encoding="UTF-8"?>
<svg xmlns="http://www.w3.org/2000/svg" xmlns:xlink="http://www.w3.org/1999/xlink" viewBox="0 0 512 512" width="512px" height="512px">
<g id="surface12375233">
<path style=" stroke:none;fill-rule:nonzero;fill:rgb(0%,42.352942%,69.411767%);fill-opacity:1;" d="M 40.121094 57.953125 L 83.847656 419.921875 C 85.398438 432.742188 94.542969 443.398438 107.046875 446.953125 L 247.328125 486.769531 C 253 488.375 259.007812 488.414062 264.703125 486.871094 L 412.238281 446.902344 C 425.152344 443.40625 434.550781 432.367188 435.878906 419.136719 L 472.273438 57.640625 C 473.222656 48.191406 465.761719 40 456.199219 40 L 56.152344 40 C 46.472656 40 38.960938 48.40625 40.121094 57.953125 Z M 40.121094 57.953125 "/>
<path style=" stroke:none;fill-rule:nonzero;fill:rgb(20.392157%,59.607846%,85.882354%);fill-opacity:1;" d="M 456.199219 40 L 256 40 L 256 488 C 258.929688 488.015625 261.855469 487.640625 264.703125 486.871094 L 412.238281 446.902344 C 425.152344 443.40625 434.550781 432.367188 435.878906 419.136719 L 472.273438 57.640625 C 473.222656 48.191406 465.761719 40 456.199219 40 Z M 456.199219 40 "/>
<path style=" stroke:none;fill-rule:nonzero;fill:rgb(20%,20%,20%);fill-opacity:1;" d="M 256.199219 496 C 252.480469 496 248.753906 495.488281 245.136719 494.464844 L 104.855469 454.648438 C 89.214844 450.207031 77.847656 436.960938 75.894531 420.878906 L 32.167969 58.910156 C 31.34375 52.113281 33.488281 45.273438 38.03125 40.136719 C 42.625 34.96875 49.222656 32 56.160156 32 L 456.207031 32 C 463.039062 32 469.585938 34.894531 474.160156 39.960938 C 478.695312 44.984375 480.921875 51.71875 480.238281 58.449219 L 443.839844 419.945312 C 442.175781 436.359375 430.320312 450.296875 414.320312 454.617188 L 266.800781 494.582031 C 263.328125 495.527344 259.769531 496 256.199219 496 Z M 56.160156 48 C 53.769531 48 51.585938 48.976562 50.015625 50.753906 C 48.480469 52.488281 47.785156 54.703125 48.0625 56.992188 L 91.792969 418.960938 C 92.960938 428.617188 99.808594 436.585938 109.230469 439.257812 L 249.519531 479.070312 C 253.800781 480.28125 258.320312 480.3125 262.617188 479.152344 L 410.144531 439.183594 C 419.785156 436.574219 426.9375 428.199219 427.929688 418.34375 L 464.320312 56.839844 C 464.542969 54.574219 463.824219 52.390625 462.296875 50.6875 C 460.71875 48.953125 458.550781 48 456.199219 48 Z M 56.160156 48 "/>
<path style=" stroke:none;fill-rule:nonzero;fill:rgb(20%,20%,20%);fill-opacity:1;" d="M 56 96 C 51.574219 96 48 92.425781 48 88 L 48 72 C 48 67.574219 51.574219 64 56 64 C 60.425781 64 64 67.574219 64 72 L 64 88 C 64 92.425781 60.425781 96 56 96 Z M 96 96 C 91.574219 96 88 92.425781 88 88 L 88 72 C 88 67.574219 91.574219 64 96 64 C 100.425781 64 104 67.574219 104 72 L 104 88 C 104 92.425781 100.425781 96 96 96 Z M 136 96 C 131.574219 96 128 92.425781 128 88 L 128 72 C 128 67.574219 131.574219 64 136 64 C 140.425781 64 144 67.574219 144 72 L 144 88 C 144 92.425781 140.425781 96 136 96 Z M 176 96 C 171.574219 96 168 92.425781 168 88 L 168 72 C 168 67.574219 171.574219 64 176 64 C 180.425781 64 184 67.574219 184 72 L 184 88 C 184 92.425781 180.425781 96 176 96 Z M 216 96 C 211.574219 96 208 92.425781 208 88 L 208 72 C 208 67.574219 211.574219 64 216 64 C 220.425781 64 224 67.574219 224 72 L 224 88 C 224 92.425781 220.425781 96 216 96 Z M 256 96 C 251.574219 96 248 92.425781 248 88 L 248 72 C 248 67.574219 251.574219 64 256 64 C 260.425781 64 264 67.574219 264 72 L 264 88 C 264 92.425781 260.425781 96 256 96 Z M 296 96 C 291.574219 96 288 92.425781 288 88 L 288 72 C 288 67.574219 291.574219 64 296 64 C 300.425781 64 304 67.574219 304 72 L 304 88 C 304 92.425781 300.425781 96 296 96 Z M 336 96 C 331.574219 96 328 92.425781 328 88 L 328 72 C 328 67.574219 331.574219 64 336 64 C 340.425781 64 344 67.574219 344 72 L 344 88 C 344 92.425781 340.425781 96 336 96 Z M 376 96 C 371.574219 96 368 92.425781 368 88 L 368 72 C 368 67.574219 371.574219 64 376 64 C 380.425781 64 384 67.574219 384 72 L 384 88 C 384 92.425781 380.425781 96 376 96 Z M 416 96 C 411.574219 96 408 92.425781 408 88 L 408 72 C 408 67.574219 411.574219 64 416 64 C 420.425781 64 424 67.574219 424 72 L 424 88 C 424 92.425781 420.425781 96 416 96 Z M 456 96 C 451.574219 96 448 92.425781 448 88 L 448 72 C 448 67.574219 451.574219 64 456 64 C 460.425781 64 464 67.574219 464 72 L 464 88 C 464 92.425781 460.425781 96 456 96 Z M 319.992188 438.449219 C 316.472656 438.449219 313.238281 436.105469 312.28125 432.542969 C 311.121094 428.28125 313.640625 423.886719 317.902344 422.726562 L 333.902344 418.390625 C 338.175781 417.222656 342.566406 419.753906 343.71875 424.015625 C 344.878906 428.28125 342.359375 432.671875 338.097656 433.832031 L 322.097656 438.167969 C 321.390625 438.359375 320.6875 438.449219 319.992188 438.449219 Z M 256.191406 456.023438 L 213.808594 443.992188 C 209.558594 442.792969 207.089844 438.359375 208.304688 434.113281 C 209.503906 429.863281 213.910156 427.375 218.183594 428.609375 L 256.289062 439.425781 L 285.902344 431.40625 C 290.175781 430.222656 294.566406 432.769531 295.71875 437.03125 C 296.878906 441.296875 294.359375 445.695312 290.097656 446.847656 Z M 256.191406 456.023438 "/>
<path style=" stroke:none;fill-rule:nonzero;fill:rgb(100%,97.254902%,97.254902%);fill-opacity:1;" d="M 124 240 L 133.902344 258.097656 L 152 268 L 133.902344 277.902344 L 124 296 L 114.097656 277.902344 L 96 268 L 114.097656 258.097656 Z M 380.015625 376 L 387.023438 388.878906 L 400 396.015625 L 387.023438 403.023438 L 380.015625 416 L 372.878906 403.023438 L 360 396.015625 L 372.878906 388.878906 Z M 420.03125 184 L 424.28125 191.695312 L 432 195.984375 L 424.273438 200.214844 L 420.03125 208 L 415.726562 200.214844 L 408 195.984375 L 415.726562 191.695312 Z M 420.03125 184 "/>
<path style=" stroke:none;fill-rule:nonzero;fill:rgb(98.039216%,93.725491%,87.058824%);fill-opacity:1;" d="M 376.144531 136 L 136 136 C 131.089844 136 127.335938 140.382812 128.105469 145.238281 L 134.207031 184 L 330.992188 184 L 325.320312 232 L 200 232 L 200 280 L 319.648438 280 L 312.441406 341 L 256.753906 357.976562 L 207.574219 341.320312 L 204.023438 318.753906 C 203.40625 314.863281 200.054688 312 196.121094 312 L 163.726562 312 C 158.816406 312 155.0625 316.390625 155.824219 321.246094 L 163.9375 372.761719 C 164.390625 375.65625 166.417969 378.0625 169.199219 379 L 253.625 407.59375 C 254.433594 407.863281 255.265625 408 256.105469 408 C 256.863281 408 257.625 407.886719 258.359375 407.664062 L 351.503906 379.28125 C 354.496094 378.367188 356.671875 375.769531 357.03125 372.664062 L 380.160156 176.945312 L 383.960938 144.792969 C 384.511719 140.113281 380.855469 136 376.144531 136 Z M 376.144531 136 "/>
<path style=" stroke:none;fill-rule:nonzero;fill:rgb(20%,20%,20%);fill-opacity:1;" d="M 256.113281 416 C 254.425781 416 252.742188 415.726562 251.121094 415.183594 L 166.640625 386.574219 C 161.03125 384.6875 156.96875 379.871094 156.039062 374.015625 L 147.921875 322.488281 C 147.191406 317.863281 148.519531 313.167969 151.558594 309.609375 C 154.609375 306.046875 159.039062 304.007812 163.726562 304.007812 L 196.128906 304.007812 C 204.054688 304.007812 210.703125 309.695312 211.9375 317.527344 L 214.734375 335.304688 L 256.894531 349.574219 L 305.128906 334.878906 L 310.648438 288 L 200 288 C 195.574219 288 192 284.425781 192 280 L 192 232 C 192 227.574219 195.574219 224 200 224 L 318.207031 224 L 321.992188 192 L 134.199219 192 C 130.265625 192 126.910156 189.136719 126.296875 185.238281 L 120.191406 146.472656 C 119.464844 141.855469 120.792969 137.160156 123.832031 133.601562 C 126.878906 130.039062 131.3125 128 136 128 L 376.152344 128 C 380.679688 128 385 129.945312 388.015625 133.328125 C 391.015625 136.710938 392.441406 141.230469 391.902344 145.734375 L 364.984375 373.59375 C 364.238281 379.847656 359.871094 385.089844 353.839844 386.921875 L 260.695312 415.320312 C 259.214844 415.777344 257.671875 416 256.113281 416 Z M 163.726562 320 L 171.847656 371.511719 L 256.191406 400.015625 L 349.175781 371.617188 L 376 144 L 136 144 L 141.039062 176 L 330.992188 176 C 333.28125 176 335.457031 176.976562 336.96875 178.6875 C 338.488281 180.390625 339.199219 182.671875 338.9375 184.9375 L 333.265625 232.9375 C 332.792969 236.96875 329.375 240 325.320312 240 L 208 240 L 208 272 L 319.648438 272 C 321.929688 272 324.113281 272.976562 325.625 274.6875 C 327.144531 276.390625 327.855469 278.671875 327.59375 280.9375 L 320.390625 341.9375 C 320.015625 345.097656 317.816406 347.726562 314.785156 348.648438 L 259.097656 365.625 C 257.488281 366.121094 255.777344 366.097656 254.199219 365.550781 L 205.023438 348.894531 C 202.199219 347.945312 200.152344 345.503906 199.679688 342.558594 L 196.121094 320 Z M 163.726562 320 "/>
</g>
</svg>
