<?xml version="1.0" encoding="UTF-8"?>
<svg xmlns="http://www.w3.org/2000/svg" xmlns:xlink="http://www.w3.org/1999/xlink" viewBox="0 0 50 50" width="50px" height="50px">
<g id="surface12371779">
<path style="fill-rule:evenodd;fill:rgb(0%,42.352942%,69.411767%);fill-opacity:1;stroke-width:4;stroke-linecap:butt;stroke-linejoin:round;stroke:rgb(20%,20%,20%);stroke-opacity:1;stroke-miterlimit:10;" d="M 189.839716 27.125605 L 176.27871 180.805033 L 113.000002 198.8744 L 49.721294 180.805033 L 36.160288 27.125605 Z M 77.292346 151.419859 L 113.000002 163.184706 L 148.707658 151.419859 L 151.886861 99.438996 L 154.132061 63.2823 L 71.418904 63.2823 L 72.783985 81.351667 L 135.146652 81.351667 L 133.799532 99.438996 L 92.200472 99.438996 L 93.116514 117.526325 L 132.883491 117.526325 L 131.536371 137.858853 L 113.000002 144.181336 L 94.463634 137.858853 L 94.014594 126.561008 L 75.945227 126.561008 Z M 77.292346 151.419859 " transform="matrix(0.217478,0,0,0.217478,0.425,0.425)"/>
<path style=" stroke:none;fill-rule:evenodd;fill:rgb(0%,42.352942%,69.411767%);fill-opacity:1;" d="M 41.710938 6.324219 L 38.761719 39.746094 L 25 43.675781 L 11.238281 39.746094 L 8.289062 6.324219 Z M 16.941406 27.949219 L 20.871094 27.949219 L 20.96875 30.40625 L 25 31.78125 L 29.03125 30.40625 L 29.324219 25.984375 L 20.675781 25.984375 L 20.476562 22.050781 L 29.523438 22.050781 L 29.816406 18.117188 L 16.253906 18.117188 L 15.957031 14.1875 L 33.945312 14.1875 L 33.457031 22.050781 L 32.765625 33.355469 L 25 35.914062 L 17.234375 33.355469 Z M 16.941406 27.949219 "/>
</g>
</svg>
