<?xml version="1.0" encoding="UTF-8"?>
<svg xmlns="http://www.w3.org/2000/svg" xmlns:xlink="http://www.w3.org/1999/xlink" viewBox="0 0 512 512" width="512px" height="512px">
<g id="surface12379467">
<path style="fill-rule:nonzero;fill:rgb(0%,42.352942%,69.411767%);fill-opacity:1;stroke-width:4;stroke-linecap:butt;stroke-linejoin:round;stroke:rgb(0%,42.352942%,69.411767%);stroke-opacity:1;stroke-miterlimit:10;" d="M 24.786457 17.656194 L 201.369659 17.656194 C 205.589933 17.656194 208.884061 21.273071 208.463087 25.442477 L 192.399384 185.00952 C 191.813528 190.850547 187.66517 195.723332 181.964468 197.266907 L 116.841399 214.907511 C 114.327827 215.589841 111.675685 215.572301 109.172638 214.861906 L 47.252487 197.287956 C 41.732453 195.719824 37.696356 191.015429 37.010517 185.35507 L 17.708816 25.581047 C 17.19663 21.36779 20.513562 17.656194 24.786457 17.656194 Z M 24.786457 17.656194 " transform="matrix(2.226973,0,0,2.226973,4.352,4.352)"/>
<path style="fill-rule:nonzero;fill:rgb(20.392157%,59.607846%,85.882354%);fill-opacity:1;stroke-width:4;stroke-linecap:butt;stroke-linejoin:round;stroke:rgb(0%,42.352942%,69.411767%);stroke-opacity:1;stroke-miterlimit:10;" d="M 208.463087 25.442477 L 192.399384 185.00952 C 191.813528 190.850547 187.66517 195.723332 181.964468 197.266907 L 116.841399 214.907511 C 115.58549 215.247799 114.292746 215.412681 113.000002 215.405665 L 113.000002 17.656194 L 201.369659 17.656194 C 205.589933 17.656194 208.884061 21.273071 208.463087 25.442477 Z M 208.463087 25.442477 " transform="matrix(2.226973,0,0,2.226973,4.352,4.352)"/>
<path style="fill-rule:nonzero;fill:rgb(20%,20%,20%);fill-opacity:1;stroke-width:4;stroke-linecap:butt;stroke-linejoin:round;stroke:rgb(0%,42.352942%,69.411767%);stroke-opacity:1;stroke-miterlimit:10;" d="M 113.087705 218.938346 C 111.445903 218.938346 109.800593 218.712072 108.204396 218.259524 L 46.284244 200.68382 C 39.380255 198.724533 34.361883 192.876489 33.500639 185.779553 L 14.198938 26.003776 C 13.835847 23.002576 14.781286 19.983835 16.787933 17.715832 C 18.813875 15.435551 21.727373 14.125267 24.789965 14.125267 L 201.373167 14.125267 C 204.3884 14.125267 207.27734 15.403978 209.29802 17.638654 C 211.299405 19.855788 212.28168 22.828924 211.981735 25.798551 L 195.914525 185.365595 C 195.179573 192.611626 189.945451 198.763122 182.883597 200.669788 L 117.767543 218.312146 C 116.234493 218.729613 114.662853 218.938346 113.087705 218.938346 Z M 24.789965 21.187122 C 23.73402 21.187122 22.769286 21.618621 22.078185 22.402687 C 21.399363 23.169212 21.092402 24.146225 21.215187 25.156564 L 40.516888 184.932341 C 41.032582 189.192959 44.056585 192.711607 48.215467 193.890337 L 110.139127 211.466041 C 112.028252 211.999276 114.024375 212.013309 115.920516 211.501122 L 181.040077 193.858764 C 185.295432 192.708099 188.452744 189.010536 188.889506 184.660462 L 204.953208 25.08991 C 205.053189 24.090095 204.73395 23.12536 204.06039 22.374622 C 203.364028 21.608096 202.408064 21.187122 201.369659 21.187122 Z M 24.789965 21.187122 " transform="matrix(2.226973,0,0,2.226973,4.352,4.352)"/>
<path style="fill-rule:nonzero;fill:rgb(20%,20%,20%);fill-opacity:1;stroke-width:4;stroke-linecap:butt;stroke-linejoin:round;stroke:rgb(0%,42.352942%,69.411767%);stroke-opacity:1;stroke-miterlimit:10;" d="M 24.718049 42.37444 C 22.765778 42.37444 21.187122 40.795784 21.187122 38.843512 L 21.187122 31.781658 C 21.187122 29.827632 22.765778 28.25073 24.718049 28.25073 C 26.672074 28.25073 28.25073 29.827632 28.25073 31.781658 L 28.25073 38.843512 C 28.25073 40.795784 26.672074 42.37444 24.718049 42.37444 Z M 42.37444 42.37444 C 40.422168 42.37444 38.843512 40.795784 38.843512 38.843512 L 38.843512 31.781658 C 38.843512 29.827632 40.422168 28.25073 42.37444 28.25073 C 44.328465 28.25073 45.907121 29.827632 45.907121 31.781658 L 45.907121 38.843512 C 45.907121 40.795784 44.328465 42.37444 42.37444 42.37444 Z M 60.03083 42.37444 C 58.078559 42.37444 56.499903 40.795784 56.499903 38.843512 L 56.499903 31.781658 C 56.499903 29.827632 58.078559 28.25073 60.03083 28.25073 C 61.984856 28.25073 63.561758 29.827632 63.561758 31.781658 L 63.561758 38.843512 C 63.561758 40.795784 61.984856 42.37444 60.03083 42.37444 Z M 77.687221 42.37444 C 75.73495 42.37444 74.156294 40.795784 74.156294 38.843512 L 74.156294 31.781658 C 74.156294 29.827632 75.73495 28.25073 77.687221 28.25073 C 79.639492 28.25073 81.218148 29.827632 81.218148 31.781658 L 81.218148 38.843512 C 81.218148 40.795784 79.639492 42.37444 77.687221 42.37444 Z M 95.343612 42.37444 C 93.39134 42.37444 91.812684 40.795784 91.812684 38.843512 L 91.812684 31.781658 C 91.812684 29.827632 93.39134 28.25073 95.343612 28.25073 C 97.295883 28.25073 98.874539 29.827632 98.874539 31.781658 L 98.874539 38.843512 C 98.874539 40.795784 97.295883 42.37444 95.343612 42.37444 Z M 113.000002 42.37444 C 111.047731 42.37444 109.469075 40.795784 109.469075 38.843512 L 109.469075 31.781658 C 109.469075 29.827632 111.047731 28.25073 113.000002 28.25073 C 114.952274 28.25073 116.53093 29.827632 116.53093 31.781658 L 116.53093 38.843512 C 116.53093 40.795784 114.952274 42.37444 113.000002 42.37444 Z M 130.656393 42.37444 C 128.704122 42.37444 127.125466 40.795784 127.125466 38.843512 L 127.125466 31.781658 C 127.125466 29.827632 128.704122 28.25073 130.656393 28.25073 C 132.608664 28.25073 134.18732 29.827632 134.18732 31.781658 L 134.18732 38.843512 C 134.18732 40.795784 132.608664 42.37444 130.656393 42.37444 Z M 148.312784 42.37444 C 146.360512 42.37444 144.781856 40.795784 144.781856 38.843512 L 144.781856 31.781658 C 144.781856 29.827632 146.360512 28.25073 148.312784 28.25073 C 150.265055 28.25073 151.843711 29.827632 151.843711 31.781658 L 151.843711 38.843512 C 151.843711 40.795784 150.265055 42.37444 148.312784 42.37444 Z M 165.969174 42.37444 C 164.015149 42.37444 162.438247 40.795784 162.438247 38.843512 L 162.438247 31.781658 C 162.438247 29.827632 164.015149 28.25073 165.969174 28.25073 C 167.921446 28.25073 169.500102 29.827632 169.500102 31.781658 L 169.500102 38.843512 C 169.500102 40.795784 167.921446 42.37444 165.969174 42.37444 Z M 183.625565 42.37444 C 181.67154 42.37444 180.092884 40.795784 180.092884 38.843512 L 180.092884 31.781658 C 180.092884 29.827632 181.67154 28.25073 183.625565 28.25073 C 185.577836 28.25073 187.156492 29.827632 187.156492 31.781658 L 187.156492 38.843512 C 187.156492 40.795784 185.577836 42.37444 183.625565 42.37444 Z M 201.281956 42.37444 C 199.32793 42.37444 197.749274 40.795784 197.749274 38.843512 L 197.749274 31.781658 C 197.749274 29.827632 199.32793 28.25073 201.281956 28.25073 C 203.234227 28.25073 204.812883 29.827632 204.812883 31.781658 L 204.812883 38.843512 C 204.812883 40.795784 203.234227 42.37444 201.281956 42.37444 Z M 141.245667 193.534263 C 139.693322 193.534263 138.265515 192.499366 137.842786 190.927726 C 137.3306 189.045617 138.442675 187.107379 140.324784 186.595192 L 147.386639 184.68151 C 149.272256 184.165816 151.212249 185.2814 151.720927 187.163509 C 152.231359 189.045617 151.119283 190.983856 149.237174 191.496042 L 142.17532 193.409724 C 141.864851 193.495673 141.554382 193.534263 141.245667 193.534263 Z M 113.084197 201.29248 L 94.375369 195.981179 C 92.500277 195.451453 91.40925 193.495673 91.945993 191.620581 C 92.47572 189.745488 94.422729 188.645691 96.308346 189.18945 L 113.126295 193.964008 L 126.199321 190.426064 C 128.084938 189.903354 130.024931 191.025954 130.531854 192.908062 C 131.044041 194.790171 129.931965 196.733672 128.049856 197.24235 Z M 113.084197 201.29248 " transform="matrix(2.226973,0,0,2.226973,4.352,4.352)"/>
<path style="fill-rule:nonzero;fill:rgb(100%,97.254902%,97.254902%);fill-opacity:1;stroke-width:4;stroke-linecap:butt;stroke-linejoin:round;stroke:rgb(0%,42.352942%,69.411767%);stroke-opacity:1;stroke-miterlimit:10;" d="M 54.733562 105.938148 L 59.106439 113.924393 L 67.094439 118.29727 L 59.106439 122.668393 L 54.733562 130.656393 L 50.362439 122.668393 L 42.37444 118.29727 L 50.362439 113.924393 Z M 167.740777 165.969174 L 170.834943 171.65409 L 176.561956 174.804386 L 170.834943 177.896798 L 167.740777 183.625565 L 164.592235 177.896798 L 158.905566 174.804386 L 164.592235 171.65409 Z M 185.404184 81.218148 L 187.279277 84.615767 L 190.68742 86.5084 L 187.275769 88.376476 L 185.404184 91.812684 L 183.504535 88.376476 L 180.092884 86.5084 L 183.504535 84.615767 Z M 185.404184 81.218148 " transform="matrix(2.226973,0,0,2.226973,4.352,4.352)"/>
<path style="fill-rule:nonzero;fill:rgb(98.039216%,93.725491%,87.058824%);fill-opacity:1;stroke-width:4;stroke-linecap:butt;stroke-linejoin:round;stroke:rgb(0%,42.352942%,69.411767%);stroke-opacity:1;stroke-miterlimit:10;" d="M 169.482561 63.91257 L 167.805677 78.104688 L 157.597035 164.495762 C 157.437415 165.865685 156.476189 167.014595 155.15538 167.416276 L 114.041915 179.945542 C 113.717414 180.04377 113.380634 180.092884 113.045608 180.092884 C 112.675501 180.092884 112.307148 180.033245 111.951073 179.913969 L 74.68602 167.293491 C 73.456423 166.879533 72.563605 165.816571 72.361888 164.537859 L 68.781847 141.801704 C 68.446821 139.65824 70.102656 137.718248 72.270677 137.718248 L 86.568038 137.718248 C 88.306314 137.718248 89.784988 138.982926 90.056868 140.698399 L 91.625 150.661473 L 113.33152 158.012748 L 137.912948 150.519394 L 141.094817 123.594538 L 88.281757 123.594538 L 88.281757 102.405466 L 143.597864 102.405466 L 146.102665 81.218148 L 59.239748 81.218148 L 56.545509 64.109025 C 56.206974 61.965561 57.862809 60.03083 60.03083 60.03083 L 166.032321 60.03083 C 168.112638 60.03083 169.726376 61.846285 169.482561 63.91257 Z M 169.482561 63.91257 " transform="matrix(2.226973,0,0,2.226973,4.352,4.352)"/>
<path style="fill-rule:nonzero;fill:rgb(20%,20%,20%);fill-opacity:1;stroke-width:4;stroke-linecap:butt;stroke-linejoin:round;stroke:rgb(0%,42.352942%,69.411767%);stroke-opacity:1;stroke-miterlimit:10;" d="M 113.049116 183.625565 C 112.30364 183.625565 111.563425 183.504535 110.846014 183.264228 L 73.556404 170.636734 C 71.079668 169.803554 69.287017 167.677631 68.876566 165.092143 L 65.293017 142.348972 C 64.972024 140.307243 65.55788 138.233942 66.899738 136.662302 C 68.245104 135.090662 70.200883 134.190828 72.270677 134.190828 L 86.571546 134.190828 C 90.0709 134.190828 93.005447 136.700891 93.549206 140.158148 L 94.78582 148.005823 L 113.394666 154.30466 L 134.685474 147.818138 L 137.121866 127.125466 L 88.281757 127.125466 C 86.327732 127.125466 84.75083 125.54681 84.75083 123.594538 L 84.75083 102.405466 C 84.75083 100.453195 86.327732 98.874539 88.281757 98.874539 L 140.459847 98.874539 L 142.129714 84.75083 L 59.23624 84.75083 C 57.499718 84.75083 56.01929 83.486151 55.74741 81.765416 L 53.053171 64.652784 C 52.732177 62.616318 53.318034 60.543016 54.659892 58.971377 C 56.005257 57.399737 57.962791 56.499903 60.03083 56.499903 L 166.035829 56.499903 C 168.033706 56.499903 169.942125 57.357639 171.273459 58.8521 C 172.597776 60.344807 173.22573 62.34093 172.988931 64.328283 L 161.106914 164.906213 C 160.77715 167.667107 158.849436 169.980715 156.186769 170.789337 L 115.073304 183.32562 C 114.419039 183.525583 113.738462 183.625565 113.049116 183.625565 Z M 72.270677 141.249175 L 75.854226 163.987084 L 113.084197 176.568972 L 154.129254 164.034444 L 165.969174 63.561758 L 60.03083 63.561758 L 62.256735 77.687221 L 146.102665 77.687221 C 147.111251 77.687221 148.072477 78.11872 148.739021 78.874721 C 149.410827 79.62546 149.724804 80.632291 149.609036 81.632107 L 147.104235 102.819425 C 146.897255 104.599798 145.388762 105.938148 143.597864 105.938148 L 91.812684 105.938148 L 91.812684 120.061857 L 141.094817 120.061857 C 142.101649 120.061857 143.064629 120.493356 143.732927 121.249357 C 144.402979 122.00185 144.716956 123.006927 144.601188 124.006743 L 141.422827 150.933353 C 141.257945 152.327832 140.286195 153.489021 138.947845 153.895964 L 114.366417 161.389318 C 113.656022 161.606821 112.901775 161.596297 112.205412 161.357745 L 90.498892 154.004716 C 89.251753 153.585495 88.348411 152.506746 88.139678 151.20874 L 86.568038 141.249175 Z M 72.270677 141.249175 " transform="matrix(2.226973,0,0,2.226973,4.352,4.352)"/>
<path style=" stroke:none;fill-rule:nonzero;fill:rgb(0%,42.352942%,69.411767%);fill-opacity:1;" d="M 43.789062 61.320312 L 86.773438 417.132812 C 88.300781 429.738281 97.289062 440.214844 109.582031 443.707031 L 247.476562 482.84375 C 253.050781 484.425781 258.957031 484.464844 264.554688 482.945312 L 409.582031 443.660156 C 422.277344 440.222656 431.515625 429.371094 432.820312 416.363281 L 468.59375 61.011719 C 469.53125 51.726562 462.195312 43.671875 452.796875 43.671875 L 59.550781 43.671875 C 50.035156 43.671875 42.648438 51.9375 43.789062 61.320312 Z M 43.789062 61.320312 "/>
<path style=" stroke:none;fill-rule:nonzero;fill:rgb(20.392157%,59.607846%,85.882354%);fill-opacity:1;" d="M 452.796875 43.671875 L 256 43.671875 L 256 484.054688 C 258.878906 484.070312 261.757812 483.703125 264.554688 482.945312 L 409.582031 443.660156 C 422.277344 440.222656 431.515625 429.371094 432.820312 416.363281 L 468.59375 61.011719 C 469.53125 51.726562 462.195312 43.671875 452.796875 43.671875 Z M 452.796875 43.671875 "/>
<path style=" stroke:none;fill-rule:nonzero;fill:rgb(20%,20%,20%);fill-opacity:1;" d="M 256.195312 491.921875 C 252.539062 491.921875 248.875 491.417969 245.320312 490.410156 L 107.425781 451.269531 C 92.050781 446.90625 80.875 433.882812 78.957031 418.078125 L 35.972656 62.261719 C 35.164062 55.578125 37.269531 48.855469 41.738281 43.804688 C 46.25 38.726562 52.738281 35.808594 59.558594 35.808594 L 452.804688 35.808594 C 459.519531 35.808594 465.953125 38.65625 470.453125 43.632812 C 474.910156 48.570312 477.097656 55.191406 476.429688 61.804688 L 440.648438 417.15625 C 439.011719 433.292969 427.355469 446.992188 411.628906 451.238281 L 266.617188 490.527344 C 263.203125 491.457031 259.703125 491.921875 256.195312 491.921875 Z M 59.558594 51.535156 C 57.207031 51.535156 55.058594 52.496094 53.519531 54.242188 C 52.007812 55.949219 51.324219 58.125 51.597656 60.375 L 94.582031 416.191406 C 95.730469 425.679688 102.464844 433.515625 111.726562 436.140625 L 249.628906 475.28125 C 253.835938 476.46875 258.28125 476.5 262.503906 475.359375 L 407.523438 436.070312 C 417 433.507812 424.03125 425.273438 425.003906 415.585938 L 460.777344 60.226562 C 461 58 460.289062 55.851562 458.789062 54.179688 C 457.238281 52.472656 455.109375 51.535156 452.796875 51.535156 Z M 59.558594 51.535156 "/>
<path style=" stroke:none;fill-rule:nonzero;fill:rgb(20%,20%,20%);fill-opacity:1;" d="M 59.398438 98.71875 C 55.050781 98.71875 51.535156 95.203125 51.535156 90.855469 L 51.535156 75.128906 C 51.535156 70.777344 55.050781 67.265625 59.398438 67.265625 C 63.75 67.265625 67.265625 70.777344 67.265625 75.128906 L 67.265625 90.855469 C 67.265625 95.203125 63.75 98.71875 59.398438 98.71875 Z M 98.71875 98.71875 C 94.371094 98.71875 90.855469 95.203125 90.855469 90.855469 L 90.855469 75.128906 C 90.855469 70.777344 94.371094 67.265625 98.71875 67.265625 C 103.070312 67.265625 106.585938 70.777344 106.585938 75.128906 L 106.585938 90.855469 C 106.585938 95.203125 103.070312 98.71875 98.71875 98.71875 Z M 138.039062 98.71875 C 133.691406 98.71875 130.175781 95.203125 130.175781 90.855469 L 130.175781 75.128906 C 130.175781 70.777344 133.691406 67.265625 138.039062 67.265625 C 142.390625 67.265625 145.902344 70.777344 145.902344 75.128906 L 145.902344 90.855469 C 145.902344 95.203125 142.390625 98.71875 138.039062 98.71875 Z M 177.359375 98.71875 C 173.011719 98.71875 169.496094 95.203125 169.496094 90.855469 L 169.496094 75.128906 C 169.496094 70.777344 173.011719 67.265625 177.359375 67.265625 C 181.707031 67.265625 185.222656 70.777344 185.222656 75.128906 L 185.222656 90.855469 C 185.222656 95.203125 181.707031 98.71875 177.359375 98.71875 Z M 216.679688 98.71875 C 212.332031 98.71875 208.816406 95.203125 208.816406 90.855469 L 208.816406 75.128906 C 208.816406 70.777344 212.332031 67.265625 216.679688 67.265625 C 221.027344 67.265625 224.542969 70.777344 224.542969 75.128906 L 224.542969 90.855469 C 224.542969 95.203125 221.027344 98.71875 216.679688 98.71875 Z M 256 98.71875 C 251.652344 98.71875 248.136719 95.203125 248.136719 90.855469 L 248.136719 75.128906 C 248.136719 70.777344 251.652344 67.265625 256 67.265625 C 260.347656 67.265625 263.863281 70.777344 263.863281 75.128906 L 263.863281 90.855469 C 263.863281 95.203125 260.347656 98.71875 256 98.71875 Z M 295.320312 98.71875 C 290.972656 98.71875 287.457031 95.203125 287.457031 90.855469 L 287.457031 75.128906 C 287.457031 70.777344 290.972656 67.265625 295.320312 67.265625 C 299.667969 67.265625 303.183594 70.777344 303.183594 75.128906 L 303.183594 90.855469 C 303.183594 95.203125 299.667969 98.71875 295.320312 98.71875 Z M 334.640625 98.71875 C 330.292969 98.71875 326.777344 95.203125 326.777344 90.855469 L 326.777344 75.128906 C 326.777344 70.777344 330.292969 67.265625 334.640625 67.265625 C 338.988281 67.265625 342.503906 70.777344 342.503906 75.128906 L 342.503906 90.855469 C 342.503906 95.203125 338.988281 98.71875 334.640625 98.71875 Z M 373.960938 98.71875 C 369.609375 98.71875 366.097656 95.203125 366.097656 90.855469 L 366.097656 75.128906 C 366.097656 70.777344 369.609375 67.265625 373.960938 67.265625 C 378.308594 67.265625 381.824219 70.777344 381.824219 75.128906 L 381.824219 90.855469 C 381.824219 95.203125 378.308594 98.71875 373.960938 98.71875 Z M 413.28125 98.71875 C 408.929688 98.71875 405.414062 95.203125 405.414062 90.855469 L 405.414062 75.128906 C 405.414062 70.777344 408.929688 67.265625 413.28125 67.265625 C 417.628906 67.265625 421.144531 70.777344 421.144531 75.128906 L 421.144531 90.855469 C 421.144531 95.203125 417.628906 98.71875 413.28125 98.71875 Z M 452.601562 98.71875 C 448.25 98.71875 444.734375 95.203125 444.734375 90.855469 L 444.734375 75.128906 C 444.734375 70.777344 448.25 67.265625 452.601562 67.265625 C 456.949219 67.265625 460.464844 70.777344 460.464844 75.128906 L 460.464844 90.855469 C 460.464844 95.203125 456.949219 98.71875 452.601562 98.71875 Z M 318.902344 435.347656 C 315.445312 435.347656 312.265625 433.042969 311.324219 429.542969 C 310.183594 425.351562 312.660156 421.035156 316.851562 419.894531 L 332.578125 415.632812 C 336.777344 414.484375 341.097656 416.96875 342.230469 421.160156 C 343.367188 425.351562 340.890625 429.667969 336.699219 430.808594 L 320.972656 435.070312 C 320.28125 435.261719 319.589844 435.347656 318.902344 435.347656 Z M 256.1875 452.625 L 214.523438 440.796875 C 210.347656 439.617188 207.917969 435.261719 209.113281 431.085938 C 210.292969 426.910156 214.628906 424.460938 218.828125 425.671875 L 256.28125 436.304688 L 285.394531 428.425781 C 289.59375 427.261719 293.914062 429.761719 295.042969 433.953125 C 296.183594 438.144531 293.707031 442.472656 289.515625 443.605469 Z M 256.1875 452.625 "/>
<path style=" stroke:none;fill-rule:nonzero;fill:rgb(100%,97.254902%,97.254902%);fill-opacity:1;" d="M 126.242188 240.273438 L 135.980469 258.058594 L 153.769531 267.796875 L 135.980469 277.53125 L 126.242188 295.320312 L 116.507812 277.53125 L 98.71875 267.796875 L 116.507812 258.058594 Z M 377.90625 373.960938 L 384.796875 386.621094 L 397.550781 393.636719 L 384.796875 400.523438 L 377.90625 413.28125 L 370.894531 400.523438 L 358.230469 393.636719 L 370.894531 386.621094 Z M 417.242188 185.222656 L 421.417969 192.789062 L 429.007812 197.003906 L 421.410156 201.164062 L 417.242188 208.816406 L 413.011719 201.164062 L 405.414062 197.003906 L 413.011719 192.789062 Z M 417.242188 185.222656 "/>
<path style=" stroke:none;fill-rule:nonzero;fill:rgb(98.039216%,93.725491%,87.058824%);fill-opacity:1;" d="M 374.101562 138.039062 L 138.039062 138.039062 C 133.210938 138.039062 129.523438 142.347656 130.277344 147.121094 L 136.277344 185.222656 L 329.71875 185.222656 L 324.140625 232.40625 L 200.953125 232.40625 L 200.953125 279.59375 L 318.566406 279.59375 L 311.480469 339.554688 L 256.738281 356.242188 L 208.398438 339.871094 L 204.90625 317.683594 C 204.300781 313.863281 201.007812 311.046875 197.136719 311.046875 L 165.296875 311.046875 C 160.46875 311.046875 156.78125 315.367188 157.527344 320.140625 L 165.5 370.773438 C 165.949219 373.621094 167.9375 375.988281 170.675781 376.910156 L 253.664062 405.015625 C 254.457031 405.28125 255.277344 405.414062 256.101562 405.414062 C 256.847656 405.414062 257.597656 405.304688 258.320312 405.085938 L 349.878906 377.183594 C 352.820312 376.289062 354.960938 373.730469 355.3125 370.679688 L 378.050781 178.289062 L 381.785156 146.683594 C 382.328125 142.082031 378.734375 138.039062 374.101562 138.039062 Z M 374.101562 138.039062 "/>
<path style=" stroke:none;fill-rule:nonzero;fill:rgb(20%,20%,20%);fill-opacity:1;" d="M 256.109375 413.28125 C 254.449219 413.28125 252.800781 413.011719 251.203125 412.476562 L 168.160156 384.355469 C 162.644531 382.5 158.652344 377.765625 157.738281 372.007812 L 149.757812 321.359375 C 149.042969 316.8125 150.347656 312.195312 153.335938 308.695312 C 156.332031 305.195312 160.6875 303.191406 165.296875 303.191406 L 197.144531 303.191406 C 204.9375 303.191406 211.472656 308.78125 212.683594 316.480469 L 215.4375 333.957031 L 256.878906 347.984375 L 304.292969 333.539062 L 309.71875 287.457031 L 200.953125 287.457031 C 196.601562 287.457031 193.089844 283.941406 193.089844 279.59375 L 193.089844 232.40625 C 193.089844 228.058594 196.601562 224.542969 200.953125 224.542969 L 317.152344 224.542969 L 320.871094 193.089844 L 136.269531 193.089844 C 132.402344 193.089844 129.105469 190.273438 128.5 186.441406 L 122.5 148.332031 C 121.785156 143.796875 123.089844 139.179688 126.078125 135.679688 C 129.074219 132.179688 133.433594 130.175781 138.039062 130.175781 L 374.109375 130.175781 C 378.558594 130.175781 382.808594 132.085938 385.773438 135.414062 C 388.722656 138.738281 390.121094 143.183594 389.59375 147.609375 L 363.132812 371.59375 C 362.398438 377.742188 358.105469 382.894531 352.175781 384.695312 L 260.617188 412.613281 C 259.160156 413.058594 257.644531 413.28125 256.109375 413.28125 Z M 165.296875 318.910156 L 173.277344 369.546875 L 256.1875 397.566406 L 347.59375 369.652344 L 373.960938 145.902344 L 138.039062 145.902344 L 142.996094 177.359375 L 329.71875 177.359375 C 331.964844 177.359375 334.105469 178.320312 335.589844 180.003906 C 337.085938 181.675781 337.785156 183.917969 337.527344 186.144531 L 331.949219 233.328125 C 331.488281 237.292969 328.128906 240.273438 324.140625 240.273438 L 208.816406 240.273438 L 208.816406 271.726562 L 318.566406 271.726562 C 320.808594 271.726562 322.953125 272.6875 324.441406 274.371094 C 325.933594 276.046875 326.632812 278.285156 326.375 280.511719 L 319.296875 340.476562 C 318.929688 343.582031 316.765625 346.167969 313.785156 347.074219 L 259.042969 363.761719 C 257.460938 364.246094 255.78125 364.222656 254.230469 363.691406 L 205.890625 347.316406 C 203.113281 346.382812 201.101562 343.980469 200.636719 341.089844 L 197.136719 318.910156 Z M 165.296875 318.910156 "/>
</g>
</svg>
