<?xml version="1.0" encoding="UTF-8"?>
<svg xmlns="http://www.w3.org/2000/svg" xmlns:xlink="http://www.w3.org/1999/xlink" viewBox="0 0 512 512" width="512px" height="512px">
<g id="surface12382965">
<path style=" stroke:none;fill-rule:nonzero;fill:rgb(92.54902%,94.117647%,94.509804%);fill-opacity:1;" d="M 256 512 C 114.613281 512 0 397.386719 0 256 C 0 114.613281 114.613281 0 256 0 C 397.386719 0 512 114.613281 512 256 C 512 397.386719 397.386719 512 256 512 Z M 256 512 "/>
<path style=" stroke:none;fill-rule:nonzero;fill:rgb(0%,42.352942%,69.411767%);fill-opacity:1;" d="M 83.332031 99.160156 L 118.3125 388.734375 C 119.554688 398.996094 126.871094 407.519531 136.875 410.363281 L 249.097656 442.214844 C 253.636719 443.5 258.441406 443.53125 263 442.296875 L 381.027344 410.324219 C 391.355469 407.527344 398.878906 398.695312 399.941406 388.109375 L 429.054688 98.910156 C 429.816406 91.355469 423.84375 84.800781 416.195312 84.800781 L 96.15625 84.800781 C 88.414062 84.800781 82.402344 91.527344 83.332031 99.160156 Z M 83.332031 99.160156 "/>
<path style=" stroke:none;fill-rule:nonzero;fill:rgb(20.392157%,59.607846%,85.882354%);fill-opacity:1;" d="M 416.195312 84.800781 L 256.035156 84.800781 L 256.035156 443.199219 C 258.378906 443.210938 260.71875 442.910156 263 442.296875 L 381.027344 410.324219 C 391.355469 407.527344 398.878906 398.695312 399.941406 388.109375 L 429.054688 98.910156 C 429.816406 91.355469 423.84375 84.800781 416.195312 84.800781 Z M 416.195312 84.800781 "/>
<path style=" stroke:none;fill-rule:nonzero;fill:rgb(20%,20%,20%);fill-opacity:1;" d="M 256.195312 449.601562 C 253.21875 449.601562 250.238281 449.191406 247.34375 448.371094 L 135.121094 416.519531 C 122.609375 412.964844 113.515625 402.367188 111.953125 389.503906 L 76.96875 99.929688 C 76.3125 94.488281 78.027344 89.015625 81.660156 84.910156 C 85.335938 80.773438 90.613281 78.398438 96.164062 78.398438 L 416.203125 78.398438 C 421.667969 78.398438 426.902344 80.714844 430.5625 84.769531 C 434.191406 88.789062 435.972656 94.175781 435.425781 99.558594 L 406.308594 388.753906 C 404.976562 401.886719 395.492188 413.035156 382.691406 416.492188 L 264.675781 448.46875 C 261.898438 449.222656 259.050781 449.601562 256.195312 449.601562 Z M 96.164062 91.199219 C 94.25 91.199219 92.503906 91.980469 91.25 93.402344 C 90.019531 94.789062 89.460938 96.5625 89.6875 98.394531 L 124.667969 387.96875 C 125.605469 395.691406 131.082031 402.066406 138.621094 404.203125 L 250.851562 436.058594 C 254.277344 437.023438 257.890625 437.050781 261.328125 436.121094 L 379.351562 404.148438 C 387.0625 402.0625 392.785156 395.359375 393.578125 387.476562 L 422.691406 98.273438 C 422.871094 96.460938 422.292969 94.714844 421.074219 93.351562 C 419.8125 91.960938 418.078125 91.199219 416.195312 91.199219 Z M 96.164062 91.199219 "/>
<path style=" stroke:none;fill-rule:nonzero;fill:rgb(20%,20%,20%);fill-opacity:1;" d="M 96.035156 129.601562 C 92.496094 129.601562 89.636719 126.738281 89.636719 123.199219 L 89.636719 110.398438 C 89.636719 106.859375 92.496094 104 96.035156 104 C 99.574219 104 102.433594 106.859375 102.433594 110.398438 L 102.433594 123.199219 C 102.433594 126.738281 99.574219 129.601562 96.035156 129.601562 Z M 128.035156 129.601562 C 124.496094 129.601562 121.636719 126.738281 121.636719 123.199219 L 121.636719 110.398438 C 121.636719 106.859375 124.496094 104 128.035156 104 C 131.574219 104 134.433594 106.859375 134.433594 110.398438 L 134.433594 123.199219 C 134.433594 126.738281 131.574219 129.601562 128.035156 129.601562 Z M 160.035156 129.601562 C 156.496094 129.601562 153.636719 126.738281 153.636719 123.199219 L 153.636719 110.398438 C 153.636719 106.859375 156.496094 104 160.035156 104 C 163.574219 104 166.433594 106.859375 166.433594 110.398438 L 166.433594 123.199219 C 166.433594 126.738281 163.574219 129.601562 160.035156 129.601562 Z M 192.035156 129.601562 C 188.496094 129.601562 185.636719 126.738281 185.636719 123.199219 L 185.636719 110.398438 C 185.636719 106.859375 188.496094 104 192.035156 104 C 195.574219 104 198.433594 106.859375 198.433594 110.398438 L 198.433594 123.199219 C 198.433594 126.738281 195.574219 129.601562 192.035156 129.601562 Z M 224.035156 129.601562 C 220.496094 129.601562 217.636719 126.738281 217.636719 123.199219 L 217.636719 110.398438 C 217.636719 106.859375 220.496094 104 224.035156 104 C 227.574219 104 230.433594 106.859375 230.433594 110.398438 L 230.433594 123.199219 C 230.433594 126.738281 227.574219 129.601562 224.035156 129.601562 Z M 256.035156 129.601562 C 252.496094 129.601562 249.636719 126.738281 249.636719 123.199219 L 249.636719 110.398438 C 249.636719 106.859375 252.496094 104 256.035156 104 C 259.574219 104 262.433594 106.859375 262.433594 110.398438 L 262.433594 123.199219 C 262.433594 126.738281 259.574219 129.601562 256.035156 129.601562 Z M 288.035156 129.601562 C 284.496094 129.601562 281.636719 126.738281 281.636719 123.199219 L 281.636719 110.398438 C 281.636719 106.859375 284.496094 104 288.035156 104 C 291.574219 104 294.433594 106.859375 294.433594 110.398438 L 294.433594 123.199219 C 294.433594 126.738281 291.574219 129.601562 288.035156 129.601562 Z M 320.035156 129.601562 C 316.496094 129.601562 313.636719 126.738281 313.636719 123.199219 L 313.636719 110.398438 C 313.636719 106.859375 316.496094 104 320.035156 104 C 323.574219 104 326.433594 106.859375 326.433594 110.398438 L 326.433594 123.199219 C 326.433594 126.738281 323.574219 129.601562 320.035156 129.601562 Z M 352.035156 129.601562 C 348.496094 129.601562 345.636719 126.738281 345.636719 123.199219 L 345.636719 110.398438 C 345.636719 106.859375 348.496094 104 352.035156 104 C 355.574219 104 358.433594 106.859375 358.433594 110.398438 L 358.433594 123.199219 C 358.433594 126.738281 355.574219 129.601562 352.035156 129.601562 Z M 384.035156 129.601562 C 380.496094 129.601562 377.636719 126.738281 377.636719 123.199219 L 377.636719 110.398438 C 377.636719 106.859375 380.496094 104 384.035156 104 C 387.574219 104 390.433594 106.859375 390.433594 110.398438 L 390.433594 123.199219 C 390.433594 126.738281 387.574219 129.601562 384.035156 129.601562 Z M 416.035156 129.601562 C 412.496094 129.601562 409.636719 126.738281 409.636719 123.199219 L 409.636719 110.398438 C 409.636719 106.859375 412.496094 104 416.035156 104 C 419.574219 104 422.433594 106.859375 422.433594 110.398438 L 422.433594 123.199219 C 422.433594 126.738281 419.574219 129.601562 416.035156 129.601562 Z M 307.230469 403.558594 C 304.414062 403.558594 301.828125 401.683594 301.058594 398.835938 C 300.132812 395.425781 302.148438 391.910156 305.558594 390.980469 L 318.359375 387.511719 C 321.777344 386.578125 325.289062 388.601562 326.210938 392.011719 C 327.140625 395.425781 325.125 398.9375 321.710938 399.867188 L 308.914062 403.335938 C 308.347656 403.488281 307.785156 403.558594 307.230469 403.558594 Z M 256.1875 417.621094 L 222.28125 407.992188 C 218.882812 407.035156 216.90625 403.488281 217.878906 400.089844 C 218.839844 396.691406 222.363281 394.699219 225.78125 395.6875 L 256.265625 404.339844 L 279.957031 397.925781 C 283.375 396.980469 286.890625 399.015625 287.8125 402.425781 C 288.738281 405.835938 286.722656 409.355469 283.3125 410.277344 Z M 256.1875 417.621094 "/>
<path style=" stroke:none;fill-rule:nonzero;fill:rgb(100%,97.254902%,97.254902%);fill-opacity:1;" d="M 150.433594 244.800781 L 158.359375 259.277344 L 172.835938 267.199219 L 158.359375 275.125 L 150.433594 289.601562 L 142.511719 275.125 L 128.035156 267.199219 L 142.511719 259.277344 Z M 355.25 353.601562 L 360.855469 363.902344 L 371.234375 369.613281 L 360.855469 375.21875 L 355.25 385.601562 L 349.539062 375.21875 L 339.234375 369.613281 L 349.539062 363.902344 Z M 387.261719 200 L 390.660156 206.15625 L 396.835938 209.585938 L 390.652344 212.972656 L 387.261719 219.199219 L 383.816406 212.972656 L 377.636719 209.585938 L 383.816406 206.15625 Z M 387.261719 200 "/>
<path style=" stroke:none;fill-rule:nonzero;fill:rgb(98.039216%,93.725491%,87.058824%);fill-opacity:1;" d="M 352.152344 161.601562 L 160.035156 161.601562 C 156.105469 161.601562 153.105469 165.105469 153.71875 168.992188 L 158.601562 200 L 316.027344 200 L 311.492188 238.398438 L 211.234375 238.398438 L 211.234375 276.800781 L 306.953125 276.800781 L 301.1875 325.601562 L 256.636719 339.179688 L 217.296875 325.855469 L 214.453125 307.800781 C 213.960938 304.691406 211.28125 302.398438 208.132812 302.398438 L 182.21875 302.398438 C 178.289062 302.398438 175.285156 305.914062 175.894531 309.796875 L 182.382812 351.007812 C 182.75 353.324219 184.367188 355.25 186.59375 356 L 254.132812 378.875 C 254.78125 379.089844 255.445312 379.199219 256.117188 379.199219 C 256.726562 379.199219 257.335938 379.109375 257.921875 378.929688 L 332.4375 356.222656 C 334.832031 355.496094 336.574219 353.414062 336.859375 350.929688 L 355.363281 194.355469 L 358.402344 168.632812 C 358.84375 164.890625 355.921875 161.601562 352.152344 161.601562 Z M 352.152344 161.601562 "/>
<path style=" stroke:none;fill-rule:nonzero;fill:rgb(20%,20%,20%);fill-opacity:1;" d="M 256.125 385.601562 C 254.773438 385.601562 253.429688 385.382812 252.132812 384.945312 L 184.546875 362.0625 C 180.0625 360.550781 176.808594 356.699219 176.066406 352.011719 L 169.570312 310.789062 C 168.988281 307.089844 170.050781 303.335938 172.484375 300.488281 C 174.921875 297.636719 178.46875 296.007812 182.21875 296.007812 L 208.136719 296.007812 C 214.480469 296.007812 219.796875 300.558594 220.785156 306.824219 L 223.023438 321.042969 L 256.753906 332.460938 L 295.339844 320.703125 L 299.753906 283.199219 L 211.234375 283.199219 C 207.695312 283.199219 204.835938 280.339844 204.835938 276.800781 L 204.835938 238.398438 C 204.835938 234.859375 207.695312 232 211.234375 232 L 305.800781 232 L 308.828125 206.398438 L 158.59375 206.398438 C 155.445312 206.398438 152.765625 204.109375 152.273438 200.992188 L 147.390625 169.976562 C 146.808594 166.285156 147.867188 162.527344 150.300781 159.679688 C 152.738281 156.832031 156.285156 155.199219 160.035156 155.199219 L 352.15625 155.199219 C 355.78125 155.199219 359.234375 156.753906 361.648438 159.460938 C 364.046875 162.167969 365.1875 165.785156 364.757812 169.390625 L 343.222656 351.671875 C 342.628906 356.679688 339.132812 360.871094 334.308594 362.335938 L 259.792969 385.054688 C 258.609375 385.421875 257.375 385.601562 256.125 385.601562 Z M 182.21875 308.800781 L 188.714844 350.007812 L 256.1875 372.8125 L 330.578125 350.09375 L 352.035156 168 L 160.035156 168 L 164.066406 193.601562 L 316.027344 193.601562 C 317.859375 193.601562 319.601562 194.378906 320.808594 195.75 C 322.027344 197.113281 322.59375 198.9375 322.382812 200.75 L 317.847656 239.148438 C 317.46875 242.375 314.734375 244.800781 311.492188 244.800781 L 217.636719 244.800781 L 217.636719 270.398438 L 306.953125 270.398438 C 308.777344 270.398438 310.523438 271.179688 311.734375 272.550781 C 312.949219 273.914062 313.519531 275.738281 313.308594 277.546875 L 307.550781 326.347656 C 307.25 328.875 305.488281 330.980469 303.0625 331.71875 L 258.511719 345.300781 C 257.226562 345.695312 255.855469 345.675781 254.59375 345.242188 L 215.253906 331.917969 C 212.996094 331.15625 211.355469 329.203125 210.980469 326.847656 L 208.132812 308.800781 Z M 182.21875 308.800781 "/>
</g>
</svg>
