<?xml version="1.0" encoding="UTF-8"?>
<svg xmlns="http://www.w3.org/2000/svg" xmlns:xlink="http://www.w3.org/1999/xlink" viewBox="0 0 500 500" width="500px" height="500px">
<g id="surface12648684">
<path style="fill-rule:evenodd;fill:rgb(0%,42.352942%,69.411767%);fill-opacity:1;stroke-width:10;stroke-linecap:butt;stroke-linejoin:round;stroke:rgb(92.54902%,94.117647%,94.509804%);stroke-opacity:1;stroke-miterlimit:10;" d="M 176.280515 180.799631 L 113 198.879778 L 49.719484 180.799631 L 36.160295 27.120221 L 189.839704 27.120221 C 185.320589 78.339933 180.799631 129.579919 176.280515 180.799631 Z M 179.970266 36.160295 L 46.029733 36.160295 L 58.177159 173.809009 L 113 189.487685 L 167.82284 173.809009 Z M 75.940305 126.559189 L 94.01861 126.559189 L 94.460937 137.860663 L 113 144.180421 L 131.539062 137.860663 L 132.88079 117.519115 L 93.11921 117.519115 L 92.20138 99.440811 L 133.79862 99.440811 L 135.140347 81.360663 L 72.779505 81.360663 L 71.419347 63.280516 L 154.138325 63.280516 L 151.878767 99.440811 L 148.701379 151.419852 L 113 163.178398 L 77.29862 151.419852 Z M 75.940305 126.559189 " transform="matrix(2.119469,0,0,2.119469,10.5,10.5)"/>
<path style=" stroke:none;fill-rule:evenodd;fill:rgb(0%,42.352942%,69.411767%);fill-opacity:1;" d="M 384.121094 393.699219 L 250 432.019531 L 115.878906 393.699219 L 87.140625 67.980469 L 412.859375 67.980469 C 403.28125 176.539062 393.699219 285.140625 384.121094 393.699219 Z M 391.941406 87.140625 L 108.058594 87.140625 L 133.804688 378.882812 L 250 412.113281 L 366.195312 378.882812 Z M 171.453125 278.738281 L 209.769531 278.738281 L 210.707031 302.691406 L 250 316.085938 L 289.292969 302.691406 L 292.136719 259.578125 L 207.863281 259.578125 L 205.917969 221.261719 L 294.082031 221.261719 L 296.925781 182.941406 L 164.753906 182.941406 L 161.871094 144.621094 L 337.191406 144.621094 L 332.402344 221.261719 L 325.667969 331.429688 L 250 356.351562 L 174.332031 331.429688 Z M 171.453125 278.738281 "/>
</g>
</svg>
