<?xml version="1.0" encoding="UTF-8"?>
<svg xmlns="http://www.w3.org/2000/svg" xmlns:xlink="http://www.w3.org/1999/xlink" viewBox="0 0 480 480" width="480px" height="480px">
<g id="surface12643783">
<path style=" stroke:none;fill-rule:nonzero;fill:rgb(92.54902%,94.117647%,94.509804%);fill-opacity:1;" d="M 240 480 C 107.453125 480 0 372.546875 0 240 C 0 107.453125 107.453125 0 240 0 C 372.546875 0 480 107.453125 480 240 C 480 372.546875 372.546875 480 240 480 Z M 240 480 "/>
<path style=" stroke:none;fill-rule:nonzero;fill:rgb(0%,42.352942%,69.411767%);fill-opacity:1;" d="M 390.164062 71.964844 C 387.425781 68.910156 383.523438 67.167969 379.433594 67.167969 L 100.5625 67.167969 C 96.476562 67.167969 92.574219 68.910156 89.835938 71.964844 C 87.101562 75.015625 85.804688 79.089844 86.25 83.152344 L 117.960938 368.601562 C 118.59375 374.40625 122.695312 379.257812 128.3125 380.859375 L 236.023438 411.628906 C 237.320312 412.003906 238.660156 412.191406 239.984375 412.191406 C 241.308594 412.191406 242.648438 412.003906 243.945312 411.628906 L 351.65625 380.859375 C 357.273438 379.257812 361.363281 374.40625 362.011719 368.601562 L 393.734375 83.152344 C 394.195312 79.089844 392.898438 75.015625 390.164062 71.964844 Z M 319.429688 212.234375 L 313.007812 317.136719 L 240.460938 340.855469 L 167.914062 317.136719 L 165.164062 266.96875 L 201.882812 266.96875 L 202.804688 289.777344 L 240.460938 302.550781 L 278.117188 289.777344 L 280.867188 248.738281 L 200.054688 248.738281 L 198.226562 212.246094 L 282.710938 212.246094 L 285.460938 175.757812 L 158.726562 175.757812 L 155.976562 139.253906 L 324.023438 139.253906 Z M 319.429688 212.234375 "/>
</g>
</svg>
