<?xml version="1.0" encoding="UTF-8"?>
<svg xmlns="http://www.w3.org/2000/svg" xmlns:xlink="http://www.w3.org/1999/xlink" viewBox="0 0 50 50" width="50px" height="50px">
<g id="surface12648471">
<path style="fill-rule:evenodd;fill:rgb(0%,42.352942%,69.411767%);fill-opacity:1;stroke-width:10;stroke-linecap:butt;stroke-linejoin:round;stroke:rgb(92.54902%,94.117647%,94.509804%);stroke-opacity:1;stroke-miterlimit:10;" d="M 176.2713 180.80516 L 113 198.885307 L 49.728699 180.80516 L 36.163981 27.114692 L 189.836018 27.114692 C 185.320589 78.332561 180.80516 129.587291 176.2713 180.80516 Z M 179.975795 36.163981 L 46.024204 36.163981 L 58.169787 173.801637 L 113 189.485842 L 167.830212 173.801637 Z M 75.936619 126.564718 L 94.016766 126.564718 L 94.459094 137.862506 L 113 144.184107 L 131.540905 137.862506 L 132.886319 117.515429 L 93.113681 117.515429 L 92.192164 99.435282 L 133.807835 99.435282 L 135.134818 81.355134 L 72.785034 81.355134 L 71.42119 63.274987 L 154.136482 63.274987 L 151.887982 99.435282 L 148.699536 151.427224 L 113 163.185771 L 77.300463 151.427224 Z M 75.936619 126.564718 " transform="matrix(0.211947,0,0,0.211947,1.05,1.05)"/>
<path style=" stroke:none;fill-rule:evenodd;fill:rgb(0%,42.352942%,69.411767%);fill-opacity:1;" d="M 38.410156 39.371094 L 25 43.203125 L 11.589844 39.371094 L 8.714844 6.796875 L 41.285156 6.796875 C 40.328125 17.652344 39.371094 28.515625 38.410156 39.371094 Z M 39.195312 8.714844 L 10.804688 8.714844 L 13.378906 37.886719 L 25 41.210938 L 36.621094 37.886719 Z M 17.144531 27.875 L 20.976562 27.875 L 21.070312 30.269531 L 25 31.609375 L 28.929688 30.269531 L 29.214844 25.957031 L 20.785156 25.957031 L 20.589844 22.125 L 29.410156 22.125 L 29.691406 18.292969 L 16.476562 18.292969 L 16.1875 14.460938 L 33.71875 14.460938 L 33.242188 22.125 L 32.566406 33.144531 L 25 35.636719 L 17.433594 33.144531 Z M 17.144531 27.875 "/>
</g>
</svg>
